<?xml version="1.0" standalone="no"?>
<!DOCTYPE svg PUBLIC "-//W3C//DTD SVG 20010904//EN"
 "http://www.w3.org/TR/2001/REC-SVG-20010904/DTD/svg10.dtd">
<svg version="1.0" xmlns="http://www.w3.org/2000/svg"
 width="1037.000000pt" height="1037.000000pt" viewBox="0 0 1037.000000 1037.000000"
 preserveAspectRatio="xMidYMid meet">
<metadata>
Created by potrace 1.11, written by Peter Selinger 2001-2013
</metadata>
<g transform="translate(0.000000,1037.000000) scale(0.100000,-0.100000)"
fill="#000000" stroke="none">
<path d="M525 10290 c-95 -25 -138 -44 -216 -96 -122 -81 -216 -200 -273 -348
l-31 -81 -3 -1850 c-3 -2084 -9 -1919 76 -2088 86 -173 256 -308 448 -357 75
-20 120 -20 1904 -20 1785 0 1829 0 1904 20 245 62 444 261 506 506 20 75 20
119 20 1908 0 1820 0 1832 -21 1906 -69 250 -258 437 -506 501 -74 18 -125 19
-1907 18 -1753 0 -1834 -1 -1901 -19z"/>
<path d="M5987 10294 c-237 -57 -434 -244 -509 -484 l-23 -75 0 -1860 0 -1860
28 -80 c84 -238 265 -406 502 -465 79 -20 105 -20 1925 -18 l1845 3 84 29
c216 76 382 250 453 476 l23 75 0 1845 c0 1760 -1 1848 -18 1910 -70 247 -277
448 -519 505 -92 21 -3701 21 -3791 -1z"/>
<path d="M605 4920 c-152 -20 -286 -89 -400 -204 -89 -90 -133 -159 -173 -268
l-27 -73 -3 -1850 c-3 -2049 -7 -1918 62 -2061 87 -182 242 -316 430 -373 68
-21 70 -21 1936 -21 1866 0 1868 0 1936 21 188 57 343 191 430 373 69 143 65
12 62 2061 l-3 1850 -28 78 c-62 168 -197 320 -350 395 -169 84 20 76 -2007
78 -993 1 -1832 -2 -1865 -6z"/>
<path d="M6057 4919 c-184 -27 -358 -129 -464 -272 -55 -75 -83 -130 -114
-222 l-24 -70 -3 -1825 c-3 -2058 -8 -1910 75 -2079 83 -170 250 -312 432
-365 49 -14 241 -16 1921 -16 2083 0 1913 -6 2064 73 156 80 283 233 345 415
l26 77 0 1850 c0 1766 -1 1853 -18 1915 -70 247 -256 432 -512 507 -56 17
-169 18 -1865 19 -993 1 -1831 -2 -1863 -7z"/>
</g>
</svg>
